#!OML:ASF H:\Terrain\Patient Classification 1\Takeo\Monday\TakeoMonday.ASF
:FULLY-SPECIFIED
:DEGREES
704
root 18.2913 17.2639 -2.63421 -160.091 -73.7063 162.001
lowerback 11.9852 0.670877 0.121605
upperback 5.91393 0.581135 -0.506487
thorax -0.5342 0.168697 -0.662669
lowerneck -1.6965 19.8925 9.3755
upperneck -1.93366 26.8686 -17.9121
head 3.39198 13.2634 -5.00264
rclavicle 1.70955e-014 -1.03368e-014
rhumerus -19.43 -6.58244 -20.6556
rradius 80.962
rwrist -18.5623
rhand -39.5162 33.1873
rfingers 7.12502
rthumb -12.5014 3.58121
lclavicle 1.70955e-014 -1.03368e-014
lhumerus -21.4442 3.01117 74.387
lradius 75.861
lwrist 24.3708
lhand -29.2099 16.1173
lfingers 7.12502
lthumb -2.55446 46.0817
rfemur -22.7595 -0.174818 10.937
rtibia 41.2766
rfoot -17.2849 -1.57834
rtoes -14.3098
lfemur -8.8745 25.9872 -13.0691
ltibia 33.271
lfoot -23.4955 31.1629
ltoes 14.8985
705
root 18.2934 17.2321 -2.67037 -158.723 -73.2582 160.607
lowerback 12.2024 0.66019 -0.128158
upperback 6.12719 0.515401 -0.724485
thorax -0.429954 0.125459 -0.741213
lowerneck -1.50232 20.0534 9.71256
upperneck -2.30071 27.0754 -18.3017
head 3.38108 13.3844 -5.142
rclavicle -2.40529e-014 -6.36111e-015
rhumerus -20.3336 -7.95657 -19.9669
rradius 80.9595
rwrist -18.4408
rhand -39.5584 33.5824
rfingers 7.12502
rthumb -12.5421 3.97888
lclavicle -2.40529e-014 -6.36111e-015
lhumerus -20.7909 3.24429 74.1388
lradius 75.8667
lwrist 24.2814
lhand -29.5193 16.0701
lfingers 7.12502
lthumb -2.85326 46.0308
rfemur -23.3099 -0.166354 10.509
rtibia 42.1599
rfoot -17.7826 -1.5801
rtoes -14.9068
lfemur -9.03647 26.2618 -13.458
ltibia 33.7659
lfoot -23.8522 30.9086
ltoes 16.5502
706
root 18.2911 17.2053 -2.7075 -157.908 -72.9457 159.969
lowerback 12.055 0.522976 -0.377361
upperback 6.31291 0.298849 -0.648326
thorax -0.161345 0.00574814 -0.494749
lowerneck -1.20377 20.2521 9.99355
upperneck -2.41739 27.3945 -19.0476
head 3.49471 13.5517 -5.34563
rclavicle 1.94809e-014 3.57812e-014
rhumerus -20.3565 -9.20152 -19.2061
rradius 80.5959
rwrist -18.3161
rhand -39.5155 33.7936
rfingers 7.12502
rthumb -12.5007 4.18747
lclavicle 1.94809e-014 3.57812e-014
lhumerus -20.378 4.01728 74.0792
lradius 75.9048
lwrist 24.2284
lhand -29.6197 15.9652
lfingers 7.12502
lthumb -2.9502 45.9245
rfemur -23.9645 -0.242825 10.3727
rtibia 42.9895
rfoot -18.1059 -1.61713
rtoes -16.1467
lfemur -9.43757 26.4612 -13.7011
ltibia 34.3058
lfoot -24.0506 30.848
ltoes 17.0729
707
root 18.2874 17.176 -2.7428 -158.023 -72.8021 160.267
lowerback 11.9432 0.282635 -0.347066
upperback 6.50782 -0.0240252 -0.411212
thorax 0.100826 -0.164467 -0.228338
lowerneck -0.890763 20.4826 10.2053
upperneck -2.46053 27.782 -19.9959
head 3.66518 13.7484 -5.57921
rclavicle -1.59028e-015 -1.59028e-014
rhumerus -20.0922 -10.4696 -18.4762
rradius 80.0224
rwrist -18.1197
rhand -39.6709 34.4745
rfingers 7.12502
rthumb -12.6506 4.87765
lclavicle -1.59028e-015 -1.59028e-014
lhumerus -20.0464 4.96322 74.0257
lradius 75.9773
lwrist 24.2104
lhand -29.8344 15.7875
lfingers 7.12502
lthumb -3.15757 45.7439
rfemur -24.5333 -0.202373 10.5522
rtibia 43.7577
rfoot -18.4286 -1.51466
rtoes -15.8781
lfemur -9.86887 26.8205 -13.5551
ltibia 34.9171
lfoot -23.712 30.8821
ltoes 15.5956
708
root 18.2856 17.1453 -2.77398 -157.915 -72.5358 160.056
lowerback 12.1873 0.187379 -0.301709
upperback 6.7687 -0.172707 -0.460114
thorax 0.242184 -0.247994 -0.287824
lowerneck -0.60939 20.6186 10.5663
upperneck -2.80008 27.9811 -20.6505
head 3.70246 13.8688 -5.79231
rclavicle -4.17448e-015 -1.19271e-014
rhumerus -20.9685 -12.0145 -17.9613
rradius 79.9906
rwrist -17.8473
rhand -40.0034 35.0615
rfingers 7.12502
rthumb -12.9711 5.48475
lclavicle -4.17448e-015 -1.19271e-014
lhumerus -19.423 5.40939 73.8186
lradius 75.9116
lwrist 24.0934
lhand -29.5016 15.3346
lfingers 7.12502
lthumb -2.83609 45.2955
rfemur -24.8404 -0.125099 10.4815
rtibia 44.4954
rfoot -18.8038 -1.1898
rtoes -14.0584
lfemur -10.0272 27.3111 -13.445
ltibia 35.6279
lfoot -23.4395 30.8318
ltoes 13.3486
709
root 18.2851 17.1133 -2.80591 -157.692 -72.271 159.788
lowerback 12.4089 0.148876 -0.165437
upperback 6.95992 -0.233335 -0.648013
thorax 0.322652 -0.280046 -0.552511
lowerneck -0.511524 20.6492 10.8645
upperneck -3.03093 28.0135 -20.8497
head 3.69582 13.8984 -5.8861
rclavicle -5.10877e-014 3.57812e-014
rhumerus -22.4023 -13.4753 -17.4383
rradius 80.2726
rwrist -17.7799
rhand -40.1889 35.575
rfingers 7.12502
rthumb -13.1499 6.00963
lclavicle -5.10877e-014 3.57812e-014
lhumerus -18.8671 5.52955 73.5232
lradius 75.9296
lwrist 24.0506
lhand -28.7024 15.101
lfingers 7.12502
lthumb -2.06432 45.0708
rfemur -25.1953 0.064303 10.4071
rtibia 45.2509
rfoot -19.1665 -1.1218
rtoes -13.2625
lfemur -10.3071 27.6825 -13.4188
ltibia 36.3856
lfoot -23.2851 30.8568
ltoes 11.7031
710
root 18.2835 17.0783 -2.84134 -157.805 -72.1284 160.115
lowerback 12.424 0.0830418 0.0650225
upperback 7.01998 -0.302171 -0.655608
thorax 0.376496 -0.310191 -0.68224
lowerneck -0.464045 20.6486 11.2071
upperneck -2.86491 28.0659 -21.1243
head 3.83818 13.9151 -5.97412
rclavicle 8.74653e-015 -8.74653e-015
rhumerus -23.1217 -14.5654 -16.6691
rradius 79.9471
rwrist -18.0308
rhand -40.259 36.4051
rfingers 7.12502
rthumb -13.2174 6.84415
lclavicle 8.74653e-015 -8.74653e-015
lhumerus -18.52 5.65604 73.3491
lradius 76.0247
lwrist 24.1524
lhand -28.8869 15.8143
lfingers 7.12502
lthumb -2.24246 45.7822
rfemur -25.8211 0.198877 10.619
rtibia 46.0707
rfoot -19.5048 -1.32503
rtoes -14.1613
lfemur -10.8643 28.0631 -13.2889
ltibia 37.1169
lfoot -23.2267 30.7766
ltoes 12.026
711
root 18.2799 17.0399 -2.87479 -157.753 -72.0445 160.138
lowerback 12.5805 -0.020057 0.261959
upperback 7.09065 -0.427771 -0.701204
thorax 0.364277 -0.370387 -0.825127
lowerneck -0.375734 20.8046 11.4927
upperneck -2.64019 28.3382 -21.2367
head 3.99029 14.0424 -5.98091
rclavicle 6.75868e-015 5.56597e-015
rhumerus -23.976 -15.5901 -16.0709
rradius 79.7875
rwrist -18.2744
rhand -40.3622 36.4851
rfingers 7.12502
rthumb -13.3169 6.93058
lclavicle 6.75868e-015 5.56597e-015
lhumerus -18.2385 5.76135 73.1211
lradius 76.1708
lwrist 24.2366
lhand -29.739 16.6851
lfingers 7.12502
lthumb -3.0654 46.6428
rfemur -26.3048 0.122578 10.7394
rtibia 46.9543
rfoot -20.1271 -1.24579
rtoes -13.3768
lfemur -11.2407 28.3842 -13.1345
ltibia 37.818
lfoot -23.2335 30.5278
ltoes 13.3007
712
root 18.2756 16.9996 -2.90383 -156.901 -72.0003 159.288
lowerback 12.6985 -0.17553 0.255777
upperback 7.2314 -0.649144 -0.790836
thorax 0.444513 -0.485169 -0.888482
lowerneck -0.592691 21.0493 11.2002
upperneck -2.42484 28.6748 -20.916
head 4.04425 14.1919 -5.78256
rclavicle -6.83819e-014 1.27222e-014
rhumerus -25.0651 -16.8879 -15.6049
rradius 79.9831
rwrist -18.3605
rhand -40.5478 36.9399
rfingers 7.12502
rthumb -13.4958 7.3972
lclavicle -6.83819e-014 1.27222e-014
lhumerus -17.9069 5.90169 72.8891
lradius 76.3515
lwrist 24.2513
lhand -30.5682 16.7038
lfingers 7.12502
lthumb -3.86616 46.6484
rfemur -26.7496 -0.212302 10.5557
rtibia 47.8632
rfoot -20.7627 -0.873244
rtoes -12.1789
lfemur -11.6328 28.5839 -13.249
ltibia 38.5815
lfoot -23.0315 30.3191
ltoes 13.6586
713
root 18.275 16.9569 -2.92528 -155.882 -71.8987 158.393
lowerback 12.7985 -0.255149 0.398878
upperback 7.29584 -0.748181 -0.924648
thorax 0.454274 -0.530887 -1.09576
lowerneck -0.771194 21.0679 11.147
upperneck -2.18294 28.7237 -20.8417
head 4.13251 14.1963 -5.71871
rclavicle 2.98177e-014 -1.51076e-014
rhumerus -25.9983 -18.2254 -14.9183
rradius 79.7413
rwrist -18.3393
rhand -40.842 37.9705
rfingers 7.12502
rthumb -13.7793 8.44684
lclavicle 2.98177e-014 -1.51076e-014
lhumerus -17.422 5.76078 72.7488
lradius 76.3479
lwrist 24.2341
lhand -31.3065 16.2963
lfingers 7.12502
lthumb -4.57915 46.2268
rfemur -27.4007 -0.50469 10.3076
rtibia 48.7602
rfoot -21.03 -0.617807
rtoes -13.6702
lfemur -12.2055 28.8469 -13.5601
ltibia 39.2991
lfoot -22.8569 30.2375
ltoes 12.8133
